<svg xmlns="http://www.w3.org/2000/svg" viewBox="0 0 55.48 59.15"><defs><style>.cls-1{fill:#d1d3d4;}.cls-2{fill:#a61f4c;}.cls-3{fill:#010101;}</style></defs><title>Asset 13</title><g id="Layer_2" data-name="Layer 2"><g id="Layer_5" data-name="Layer 5"><circle class="cls-1" cx="27.98" cy="31.65" r="27.5"/><path class="cls-2" d="M29.6,8.45a2.09,2.09,0,1,1-2.09-2.09A2.1,2.1,0,0,1,29.6,8.45Z"/><path class="cls-2" d="M33.2,16.36A2.39,2.39,0,1,1,30.81,14,2.39,2.39,0,0,1,33.2,16.36Z"/><path class="cls-2" d="M29.6,24.55a2.69,2.69,0,1,1-2.69-2.69A2.68,2.68,0,0,1,29.6,24.55Z"/><path class="cls-2" d="M21.85,28.28a3.13,3.13,0,1,1-3.13-3.13A3.13,3.13,0,0,1,21.85,28.28Z"/><path class="cls-2" d="M12.62,24.83A3.58,3.58,0,1,1,9,21.25,3.58,3.58,0,0,1,12.62,24.83Z"/><path class="cls-3" d="M14.92,38h-.11A20.25,20.25,0,0,1,3.68,32.53c-.45-.43-.88-.89-1.29-1.35A9.61,9.61,0,0,1,9.62,15.25c5.94,0,10.77-3.68,10.77-8.21q0-.32,0-.63a5.86,5.86,0,0,1,9.22-5.32,20.64,20.64,0,0,1,2.64,2.23,20.41,20.41,0,0,1,0,28.84A20.2,20.2,0,0,1,21,37.91a.74.74,0,0,1-.23-1.47A18.92,18.92,0,0,0,31.16,4.37a19.14,19.14,0,0,0-2.44-2.06,4.36,4.36,0,0,0-6.87,4c0,.25,0,.51,0,.77A8.74,8.74,0,0,1,18.22,14a14,14,0,0,1-8.6,2.78A8.12,8.12,0,0,0,3.51,30.19q.57.66,1.2,1.26a18.73,18.73,0,0,0,10.32,5A.75.75,0,0,1,14.92,38Z"/><path class="cls-3" d="M17.9,38.16a.8.8,0,0,1-.53-.21.77.77,0,0,1,0-1.06.77.77,0,0,1,.53-.22A.75.75,0,0,1,18.43,38,.78.78,0,0,1,17.9,38.16Z"/></g></g></svg>