<svg xmlns="http://www.w3.org/2000/svg" viewBox="0 0 114 34.24"><defs><style>.cls-1{fill:#75213d;}.cls-2{fill:#fff;fill-rule:evenodd;}</style></defs><title>Asset 3</title><g id="Layer_2" data-name="Layer 2"><g id="Layer_1-2" data-name="Layer 1"><g id="Layer_6" data-name="Layer 6"><path class="cls-1" d="M34.12,16.3A7.84,7.84,0,0,1,34.67,11a34.2,34.2,0,0,0,1.12-4,4.11,4.11,0,0,0-.26-2.31c-.41-1.13.14-1.83,1.3-2,3-.48,5.89-1,8.85-1.54,1.54-.25,3.1-.46,4.65-.59a1.26,1.26,0,0,1,1.43,1c.9,2.73,1.31,5.57,2.11,8.31.74,2.55,1.29,5.18,2.87,7.41a4.4,4.4,0,0,0,4.11,2.25,12.68,12.68,0,0,1,3.78.18c1.73.4,2.38,1.41,1.75,3.13.12.43-.23.56-.49.7A31.2,31.2,0,0,1,60.1,26a3,3,0,0,0-1.27.31,1.63,1.63,0,0,1-.31.11A3.4,3.4,0,0,0,57,27a2.32,2.32,0,0,1-1.07.23A8.7,8.7,0,0,1,53.06,27,14.83,14.83,0,0,1,49.19,24,32.17,32.17,0,0,0,41,18.76a3.38,3.38,0,0,0-1.72-.53l-.34-.08a28.18,28.18,0,0,0-2.88-.32C35.14,17.66,34.22,17.5,34.12,16.3Z"/><path class="cls-1" d="M41.58,18a35.52,35.52,0,0,1,6.66,4,58.35,58.35,0,0,0,5.17,4.25,4.64,4.64,0,0,0,3.07.24c.35-.05.75.11,1-.28a14.1,14.1,0,0,0,1.69-.47l0,0c.38-.21.82-.27,1.2-.49a24.41,24.41,0,0,0,6.53-2.92c.71.54.74,2.58-.08,3.31a31.83,31.83,0,0,1-9.09,6.06c-2.38,1-4.08-.15-5.74-2.32-1.88-2.45-3.32-5.23-5.7-7.3a11.75,11.75,0,0,0-2.78-1.91c-.41-.19-.83-.42-1.19-.06a1.39,1.39,0,0,0-.42,1.4q1.48,5.6,3,11.2c.18.69.19,1.2-.73,1.2a.78.78,0,0,0-.33.09c-1,.51-1.43.31-1.75-.83a90.74,90.74,0,0,0-4.77-12.53c-.62-1.37-1.87-2.2-2.63-3.44a3.49,3.49,0,0,1-.7-2.33c.3.34.13.91.67,1a2.23,2.23,0,0,0,2,1.24,30.19,30.19,0,0,0,3.12.49l0,0C40.28,17.7,40.94,17.81,41.58,18Z"/><path class="cls-1" d="M39.69,17.54c-1-.07-2.16.16-3.12-.49A7.92,7.92,0,0,1,39.69,17.54Z"/><path class="cls-1" d="M56.48,26.44a3.07,3.07,0,0,1-3.07-.24A11.28,11.28,0,0,0,56.48,26.44Z"/><path class="cls-1" d="M41.58,18a2.75,2.75,0,0,1-1.93-.47A2.87,2.87,0,0,1,41.58,18Z"/><path class="cls-1" d="M59.17,25.69a2,2,0,0,1-1.69.47A2.67,2.67,0,0,1,59.17,25.69Z"/><path class="cls-1" d="M60.33,25.24a1.29,1.29,0,0,1-1.2.49A1.2,1.2,0,0,1,60.33,25.24Z"/><g id="Anklet"><path class="cls-2" d="M60,7.92a3.75,3.75,0,0,0-2.83-1.25h0c-2.24,0-3.53,1.37-4.65,2.89A1.09,1.09,0,0,1,51,10a.82.82,0,0,1-.31-1.11.6.6,0,0,1,.83-.23.44.44,0,0,1,.17.6.33.33,0,0,1-.17.14.28.28,0,0,0-.33-.24.3.3,0,0,0-.25.34s0,0,0,0a.22.22,0,0,0,.09.24.78.78,0,0,0,.58.07.72.72,0,0,0,.46-.36.9.9,0,0,0-.34-1.22,1.06,1.06,0,0,0-1.45.41,1.28,1.28,0,0,0,.49,1.73,1.44,1.44,0,0,0,.73.2l.24,0c-.23.32-.46.65-.7,1a17.78,17.78,0,0,1-1.42,1.65.24.24,0,0,0-.14,0,1.91,1.91,0,0,1-2.68.33,1.48,1.48,0,0,1-.23-2.07,1.13,1.13,0,0,1,1.59-.18.87.87,0,0,1,.32.58.84.84,0,0,1-.18.63.63.63,0,0,1-.39.23.47.47,0,0,0,0-.17.49.49,0,1,0-1,0,.51.51,0,0,0,.07.24.2.2,0,0,0,.08.17,1.1,1.1,0,0,0,1.54-.17,1.32,1.32,0,0,0-.21-1.85,1.59,1.59,0,0,0-2.23.25,1.94,1.94,0,0,0,.29,2.69,2.41,2.41,0,0,1-.92-.76,2.56,2.56,0,0,1-.43-1.92A2,2,0,0,1,47.44,9.6a.22.22,0,0,0,.08-.44,2.4,2.4,0,0,0-2.66,1.49A2.4,2.4,0,0,0,42.2,9.16a.22.22,0,0,0-.18.26.23.23,0,0,0,.26.18,2,2,0,0,1,2.26,1.58,2.56,2.56,0,0,1-.43,1.92,2.33,2.33,0,0,1-.92.76,1.94,1.94,0,0,0,.29-2.7,1.58,1.58,0,0,0-2.23-.25,1.33,1.33,0,0,0-.49.88,1.3,1.3,0,0,0,.28,1,1.11,1.11,0,0,0,.73.41,1.08,1.08,0,0,0,.81-.23.21.21,0,0,0,.08-.17.48.48,0,0,0,.07-.24.49.49,0,0,0-1,0,.47.47,0,0,0,0,.17.58.58,0,0,1-.39-.23.84.84,0,0,1-.18-.63.89.89,0,0,1,.32-.58,1.13,1.13,0,0,1,1.59.18,1.48,1.48,0,0,1-.24,2.07,1.91,1.91,0,0,1-2.68-.33.19.19,0,0,0-.14,0,17.78,17.78,0,0,1-1.42-1.65c-.24-.3-.47-.62-.7-1l.24,0a1.54,1.54,0,0,0,.73-.2,1.26,1.26,0,0,0,.48-1.73A1.07,1.07,0,0,0,38,8.22a.87.87,0,0,0-.42.54.9.9,0,0,0,.08.68.72.72,0,0,0,.46.36.79.79,0,0,0,.58-.07.23.23,0,0,0,.1-.24s0,0,0,0a.3.3,0,0,0-.25-.34.3.3,0,0,0-.33.24A.26.26,0,0,1,38,9.21a.43.43,0,0,1,.17-.59.6.6,0,0,1,.82.23A.82.82,0,0,1,38.7,10a1.09,1.09,0,0,1-1.44-.39c-1.12-1.52-2.41-2.89-4.65-2.89h0a3.74,3.74,0,0,0-2.83,1.25,4.44,4.44,0,0,0-1,3.43,3.64,3.64,0,0,0,1.34,2.45,3.58,3.58,0,0,0,2.27.81h.4a3,3,0,0,0,2-1.09,3,3,0,0,0,.64-2.18,2.41,2.41,0,0,0-2.66-2.14.23.23,0,0,0-.2.25.22.22,0,0,0,.25.2,2,2,0,0,1,2.16,1.74,2.49,2.49,0,0,1-.54,1.84,3.13,3.13,0,0,1-.25.26,2.64,2.64,0,0,0,.18-1.66,1.94,1.94,0,0,0-.83-1.22A1.9,1.9,0,0,0,32,10.33a1.59,1.59,0,0,0-1.22,1.88,1.28,1.28,0,0,0,.57.83,1.32,1.32,0,0,0,1,.19,1.07,1.07,0,0,0,.85-1.13v0s0,0,0,0a.41.41,0,0,0,0-.11s0,0,0,0a.48.48,0,0,0-.44-.31.48.48,0,0,0-.49.48.49.49,0,0,0,.4.48.62.62,0,0,1-.37.24.83.83,0,0,1-.65-.12.86.86,0,0,1-.37-.54,1.1,1.1,0,0,1,.16-.85,1.12,1.12,0,0,1,.71-.49,1.46,1.46,0,0,1,1.11.21,1.42,1.42,0,0,1,.63.93,2,2,0,0,1-.26,1.59,1.62,1.62,0,0,1-1.09.64,3.12,3.12,0,0,1-2.15-.69,3.18,3.18,0,0,1-1.17-2.15,4,4,0,0,1,.91-3.07,3.29,3.29,0,0,1,2.49-1.1h0c2,0,3.2,1.25,4.25,2.66h0l0,0c.19.26.38.51.56.77l.15.2a1.44,1.44,0,0,0-1.07.23,1.28,1.28,0,0,0-.36,1.76,1,1,0,0,0,.88.47,1.07,1.07,0,0,0,.59-.18A.9.9,0,0,0,38,12.5a.87.87,0,0,0-.13-.67.76.76,0,0,0-1-.21.22.22,0,0,0-.09.2s0,0,0,.06a.29.29,0,0,0,.27.32A.3.3,0,0,0,37.3,12a.28.28,0,0,1,.21.13.45.45,0,0,1-.13.61.6.6,0,0,1-.84-.17.82.82,0,0,1,.23-1.13,1.12,1.12,0,0,1,1.51.32h0l0,0c1.29,1.63,2.41,3,4.31,2.75a2.84,2.84,0,0,0,1.88-1.17,2.91,2.91,0,0,0,.38-.77,2.91,2.91,0,0,0,.38.77,2.85,2.85,0,0,0,1.88,1.17c1.9.29,3-1.12,4.31-2.75l0,0h0A1.11,1.11,0,0,1,53,11.39a.83.83,0,0,1,.23,1.13.61.61,0,0,1-.84.17.4.4,0,0,1-.19-.28.48.48,0,0,1,.06-.33.36.36,0,0,1,.21-.13.29.29,0,0,0,.58-.07s0,0,0-.06a.21.21,0,0,0-.09-.2.76.76,0,0,0-1,.21.9.9,0,0,0,.25,1.24,1,1,0,0,0,.59.18,1.07,1.07,0,0,0,.88-.47A1.26,1.26,0,0,0,53.21,11a1.4,1.4,0,0,0-1.07-.23l.15-.2c.18-.26.37-.52.56-.77l0,0h0c1.05-1.41,2.25-2.66,4.25-2.66h0a3.27,3.27,0,0,1,2.49,1.1,3.92,3.92,0,0,1,.91,3.07,3.2,3.2,0,0,1-1.17,2.15,3.16,3.16,0,0,1-2.15.69,1.62,1.62,0,0,1-1.09-.64,2,2,0,0,1-.26-1.59,1.48,1.48,0,0,1,1.74-1.14,1.1,1.1,0,0,1,.71.49,1.15,1.15,0,0,1,.16.85.86.86,0,0,1-.37.54.82.82,0,0,1-.65.12.62.62,0,0,1-.37-.24.48.48,0,0,0-.09-1,.48.48,0,0,0-.44.31l0,0a.41.41,0,0,0,0,.11s0,0,0,0v0a1.07,1.07,0,0,0,.16.65,1.1,1.1,0,0,0,.69.48,1.29,1.29,0,0,0,1-.19,1.36,1.36,0,0,0,.57-.83A1.55,1.55,0,0,0,58.72,11a1.58,1.58,0,0,0-1-.69,1.9,1.9,0,0,0-1.45.27,1.88,1.88,0,0,0-.83,1.22,2.57,2.57,0,0,0,.18,1.66,1.54,1.54,0,0,1-.25-.26,2.51,2.51,0,0,1-.54-1.85A2,2,0,0,1,57,9.63a.23.23,0,0,0,.25-.2.23.23,0,0,0-.2-.25,2.41,2.41,0,0,0-2.66,2.14A3,3,0,0,0,55,13.5a2.89,2.89,0,0,0,2,1.09h.4a3.58,3.58,0,0,0,2.27-.81A3.64,3.64,0,0,0,61,11.35,4.62,4.62,0,0,0,60,7.92Z"/></g><path class="cls-1" d="M78.57,0,65.41,34.13h6.75l2.78-7H88.87l2.57,6.76V16.31L85.17,0ZM77.33,20.76,81.91,9l4.55,11.72Z"/><polygon class="cls-1" points="97.93 27.93 97.93 0 91.44 0 91.44 16.3 98.29 34.13 114 34.13 114 27.93 97.93 27.93"/><polygon class="cls-1" points="91.54 34.13 91.44 33.86 91.44 34.13 91.54 34.13"/><path class="cls-1" d="M15,1Q12.49,0,6.9,0H0V34.13H6.5V19.67a38,38,0,0,0,5.94-.34l6-15.57A8.15,8.15,0,0,0,15,1ZM13.45,11.84A2.94,2.94,0,0,1,12,13a11.21,11.21,0,0,1-3.39.35H6.49v-7H8.32A8.71,8.71,0,0,1,12.45,7,3.12,3.12,0,0,1,14,9.9,3.34,3.34,0,0,1,13.45,11.84Z"/><path class="cls-1" d="M26.48,0H19.89L18.44,3.76c.14.2.28.4.41.61A10.32,10.32,0,0,1,20.28,9.9a9.27,9.27,0,0,1-1.87,5.94,9.73,9.73,0,0,1-5.07,3.3,8,8,0,0,1-.91.19L6.72,34.13h6.75l2.78-7H30.18l2.67,7H39.6ZM18.65,20.76,23.23,9l4.55,11.72Z"/></g></g></g></svg>