<svg xmlns="http://www.w3.org/2000/svg" viewBox="0 0 435.91 343.9"><defs><style>.cls-1{fill:#0d0d0d;}.cls-2{fill:#f8f7f9;}.cls-3{font-size:12px;fill:#c49a6c;font-family:FuturaBT-Light, Futura Lt BT;font-weight:300;letter-spacing:0.11em;}.cls-4{letter-spacing:0.01em;}.cls-5{letter-spacing:0.01em;}.cls-6{letter-spacing:-0.04em;}.cls-7{letter-spacing:0.41em;}.cls-8{letter-spacing:-0.09em;}.cls-9{letter-spacing:0.41em;}.cls-10{letter-spacing:0.71em;}.cls-11{letter-spacing:0.04em;}.cls-12{letter-spacing:0.75em;}.cls-13{letter-spacing:0.75em;}.cls-14{letter-spacing:0.12em;}.cls-15{letter-spacing:0.12em;}.cls-16,.cls-18{fill:#75223d;}.cls-16{stroke:#f1f2f2;}.cls-16,.cls-17{stroke-miterlimit:10;}.cls-17{fill:none;stroke:#231f20;}.cls-18{font-size:48px;etter-spacing:0.01em;}</style></defs><title>Asset 5</title><g id="Layer_2" data-name="Layer 2"><g id="Layer_1-2" data-name="Layer 1"><rect class="cls-1" x="183.1" y="92.94" width="184.39" height="184.85"/><path class="cls-1" d="M345.54,277.79c-.06-2.91-.1-23.58-.11-56.29,0-27.11,0-64.2,0-106.53L205,114.84c-.06,49.09-.12,98.15-.17,141.21l162.65.19-61,8-61.68-.77-30.84-.38-7.71-.1-1.38,0-.63,0L203,262.9l-4.8-.19.15-3.71.07-1.79,0-.88v-.44l0-1.21.29-23.11.57-46.21.57-46.21.29-23.11v-1.18l0-.32,0-.63.07-1.24.15-2.36,2.49.14,1.19.07.58,0,.29,0h1.12l23,.29,46.1.57,46.09.57,23.05.29h1.26l.34,0,.63.07,1.16.14-.14,1.3-.07.6,0,.28,0,.14V116l-.29,23.11-.57,46.21Z"/><path class="cls-1" d="M355.68,194c0-1.86-.07-12.75-.08-30.36V104.83l-160.71-.11c-.06,57-.12,114.61-.17,161.45l108.85.13-48.84,6.4-35.81-.45L202.08,272l-13-.22.29-17.13.29-23.11.57-46.21.57-46.21.29-23.11.28-14.83,14.78.28,23,.29,46.1.57,46.09.57,23.05.29,12.49.28-.15,6.64-.08,3.26,0,1.66,0,3.16-.31,25.27Z"/><path class="cls-1" d="M365.26,124.7c0-.86,0-4.1,0-9.48,0-4.82,0-11.56,0-20l-179.88-.08c-.06,65-.12,132.24-.17,180.59l69.58.08-39,5.12-35.32-.41,2.29-188,183,2.29Z"/><path class="cls-1" d="M358,86.89l-58.08,0-122.82-.06C177,165.13,176.91,247,176.87,284L204,284q-13.6,1.38-29.86,2.77l-1.34-13.61,2.17-188.45,29.53.27,21.69.27,43,.53Z"/><path class="cls-1" d="M319.75,79.51c-1.73,0-18.69,0-43.82,0l-106.26,0-.16,181.13-.41-5-.41-3.13-.82-6.24-1.64-12.49.88-70.43.43-35.22.11-8.8.11-11.87L168,77.81l28.87.21,20.42.22,34.16.42Z"/><path class="cls-1" d="M297.53,73.74l-37,0-96.66,0-.12,146.77-2.63-20,.67-53.79.33-26.89.34-47.51,27.76.18,13.8.09,7.66.08,28.61.36Z"/><path d="M22.12,186.3l-.26,1.18c.26.24.42-.08.63-.08,0,.06.05.13,0,.19-.16.54-.32,1.09-.49,1.63a.78.78,0,0,0,.27.92.82.82,0,0,0,1.05,0,15,15,0,0,0,1.26-1c.52-.45,1-1,1.49-1.41a4.58,4.58,0,0,1,.56-.38l0,0c-.2.36-.39.73-.59,1.1s-.29.44-.41.68a.7.7,0,0,0,.13.93,1.93,1.93,0,0,0,.53.42,5.23,5.23,0,0,0,2.8.79l0,.09h0l0-.09a6.55,6.55,0,0,0,2.7.83,2.66,2.66,0,0,1,.78.17,4.6,4.6,0,0,0,1.69.22,1.84,1.84,0,0,1,1.86.87c.3.46.36.42,1.11.31.21.28.32.64.76.75,1.29.31,2.58.67,3.87,1a1.11,1.11,0,0,0,.44.05c.08,0,.14-.15.21-.24v0c.57.18,1.15.37,1.73.54,0,0,.06,0,.13-.08,0-.41-.36-.62-.54-.93s-.42-.64-.63-.95v0c.37.25.77.48,1.12.77a4.86,4.86,0,0,0,3,1.19c1.68.07,3.36.25,5,.37.34,0,.68.06,1,.06,2.06,0,4.13,0,6.19-.05,1,0,2-.23,3.06-.25a26.21,26.21,0,0,0,3.28-.4A3.1,3.1,0,0,0,67,195.2a2.88,2.88,0,0,1,1.87-.38h0c.32.1.4-.17.45-.37.18-.64.72-.85,1.24-1.09a1.5,1.5,0,0,1,1.52-.12c.15-.1.38.13.57-.2l-.59.2a2,2,0,0,1,1.48-1.44,4.54,4.54,0,0,0,2.37-1.51,1.16,1.16,0,0,1,1.27-.58h.06l-.08,0a1.14,1.14,0,0,1,.73-.51,2.35,2.35,0,0,0,.63-.27.9.9,0,0,1,1.07,0c.32.21.68.35,1,.56a2.56,2.56,0,0,0,1.67.25.7.7,0,0,0,.42-.16c.54-.42,1.08-.85,1.61-1.3a2.42,2.42,0,0,1,1.86-.74,2,2,0,0,0,1.87-.88,3.11,3.11,0,0,0,.25-.38.58.58,0,0,1,1,.05,1.77,1.77,0,0,1,.13.56,15.07,15.07,0,0,1-2.68,1.37,1.44,1.44,0,0,0-.42.18,17,17,0,0,0-4,3.37,9,9,0,0,0-.91,1.59c-.15.32-.27.63-.63.75a2.08,2.08,0,0,0-1,.95,72.9,72.9,0,0,0-4.35,8,10.67,10.67,0,0,1-.82,1.38,7,7,0,0,0-.87,1.61,11.51,11.51,0,0,1-.73,1.55c-.28.5-.47.53-1,.28l-.38-.21c0,.66.65,1.09.55,1.7-.12,0-.23.09-.25.07a1.89,1.89,0,0,0-2.12-.36,4.72,4.72,0,0,1-2.14.28.85.85,0,0,0-.61.23,3.69,3.69,0,0,1-1.89.79c-.41.07-.72.21-.82.66a.53.53,0,0,1-.3.29c-.22.1-.31.24-.24.45a.93.93,0,0,1-.19,1,1.18,1.18,0,0,0-.14,1.2,3.55,3.55,0,0,0,.83,1.49,2,2,0,0,1,.5.75,5.09,5.09,0,0,0,.9,1.45,7,7,0,0,1,.72,1,4.9,4.9,0,0,0,.24.52,3.11,3.11,0,0,1,.22,3.34c-.25.69-.52,1.36-.76,2a2,2,0,0,1-.9,1.1c-.15-.18-.36-.32-.41-.5a2.45,2.45,0,0,1,.54-2.56c.44-.48.9-.92,1.35-1.37,0-.16,0-.29-.1-.38-4.07-5.6-7.9-11.38-11.71-17.16a.76.76,0,0,0-.26-.18c-.27.08-.25.29-.27.48-.07.72-.12,1.44-.2,2.16a11.37,11.37,0,0,0,.18,4.11,13.82,13.82,0,0,1,.35,4.11c0,.8-.06,1.6-.07,2.41a11.73,11.73,0,0,0,.39,3.06,43.79,43.79,0,0,1,1.3,8.28c.13,2,.19,4,.28,6a7,7,0,0,0,.09.92.62.62,0,0,0,.67.5c.78-.05,1-.29,1-.82a2.46,2.46,0,0,1,1.1-1.8,11.33,11.33,0,0,0,2.1-2.27c.35-.45.7-.91,1.07-1.35a9.69,9.69,0,0,0,1.3-1.75c.13-.26.29-.54.65-.57s.24.27.26.46a4.87,4.87,0,0,0,.81,2.36c.32.48.62,1,1,1.43a8.76,8.76,0,0,1,1,1.79,14.57,14.57,0,0,0,1.21,1.94,34.86,34.86,0,0,0,3.35,4.22,4,4,0,0,0,2.71,1.34,1.38,1.38,0,0,0,1.22-.5c.17-.2.32-.43.51-.62a3.38,3.38,0,0,1,.81-.61,5,5,0,0,0,1-.72,8.79,8.79,0,0,0,2.26-3,43.58,43.58,0,0,1,3.66-6.49,48.42,48.42,0,0,1,4.31-5.08,6.5,6.5,0,0,1,.69-.59,16.35,16.35,0,0,0,3.75-4.16c.85-1.23,1.77-2.41,2.66-3.6a2,2,0,0,1,.31-.34.39.39,0,0,1,.59.1,5.3,5.3,0,0,1,.34,1,1.54,1.54,0,0,0,.67,1.14,1.32,1.32,0,0,1,.66,1.37,1.36,1.36,0,0,0,.58,1.38,1.39,1.39,0,0,1,.58,1.42,1.32,1.32,0,0,0,0,.56c.31.87.63,1.73,1,2.57a1.49,1.49,0,0,0,.58.53,2.07,2.07,0,0,1,1,1.49,2.47,2.47,0,0,0,.53,1.12c.29.4.24.65-.12,1s-.93.91-1.43,1.34a3.12,3.12,0,0,1-1,.62,3.89,3.89,0,0,0-1.43.93,4.5,4.5,0,0,1-.8.64A31,31,0,0,0,95,234.1a1.56,1.56,0,0,0-.39.42,8.34,8.34,0,0,1-2,2.3,1.77,1.77,0,0,0-.27.37h-1V238c-.33.25-.51-.11-.82-.12-.31.15-.75.24-.69.8a.25.25,0,0,1,0,.11c-.49.57-1,1.16-1.49,1.71s-1.1,1-1.65,1.56a.79.79,0,0,0-.16.3c-.26.88-.49,1.77-.78,2.63a2.5,2.5,0,0,0,.06,1.9,6.74,6.74,0,0,1,.24.88l0,0c-.35-.4-.73-.78-1.06-1.19s-.81-1.11-1.25-1.65a2.38,2.38,0,0,0-.56-.4c-.43.57-.81,1.09-1.23,1.66.12.27.22.55.36.81s.36.59.51.9a2,2,0,0,1,.19,1.23c-.07.46-.28.84-.77.86a1.69,1.69,0,0,0-1.18.61,1.27,1.27,0,0,0-.45,1,1.15,1.15,0,0,1-.54,1.08,1.34,1.34,0,0,0-.56,1,22.15,22.15,0,0,0-.38,3.54,1.84,1.84,0,0,0,.44,1.27l1.19,1.4a4.68,4.68,0,0,1,1.12,3.62,2.56,2.56,0,0,1-.24.87.83.83,0,0,1-1.42.2,4.7,4.7,0,0,1-.63-1.09A17.53,17.53,0,0,1,78.14,259a5.41,5.41,0,0,0-.39-1.43,5.42,5.42,0,0,1,0-4.87,2.75,2.75,0,0,0,.1-.34c-.25-.29-.5-.16-.69,0a1.1,1.1,0,0,0-.26.49.56.56,0,0,1-.71.41l-.48-.08a1.78,1.78,0,0,1-2.22,1.37,5,5,0,0,0-.48.78A2.68,2.68,0,0,1,71.1,257c-.36.09-.72.21-1.12.33a1.48,1.48,0,0,0,0,.26c.08.34-.32.43-.34.69s.12.55,0,.76a3.7,3.7,0,0,1-.62,1,4.3,4.3,0,0,1-.6.53,1.53,1.53,0,0,0-.61,1.07,3.74,3.74,0,0,1-1,2.13c-.2.22-.35.49-.53.73l-.73,1a2.57,2.57,0,0,1-.82,2.89,1.33,1.33,0,0,0-.46,1.33,1.24,1.24,0,0,1-.37,1.26c-.5.47-.76,1.15-1.4,1.5a1.1,1.1,0,0,0-.39.67,17.75,17.75,0,0,0-.87,6.79,29.73,29.73,0,0,0,.46,3.52,17.49,17.49,0,0,1,.26,2.28,5.64,5.64,0,0,1-.67,3.22,2.93,2.93,0,0,0-.39,1.76c.12,1.52.22,3.05.34,4.58.09,1.3.18,2.6.3,3.89.23,2.36.24,4.74.63,7.09,0,.3.06.61.08.91.14,2.18.27,4.36.43,6.53a10.24,10.24,0,0,0,.24,1.47,14.54,14.54,0,0,1,.32,4.46,28.16,28.16,0,0,0,.23,4c0,.42.1.84.11,1.26a5.2,5.2,0,0,0,.69,2.51A6,6,0,0,1,65,330.9a4,4,0,0,1-2.15,3.21,61.63,61.63,0,0,1-13.31,5.56c-3,.87-6.11,1.43-9.18,2.06s-6.17,1.19-9.24,1.79a9.69,9.69,0,0,0-1.19.38H0c0-.46.09-.92.09-1.38,0-2.87,0-5.74,0-8.61s0-5.75,0-8.62c0-3.3,0-6.59,0-9.88,0-4.45,0-8.89,0-13.33v-17c0-4.67,0-9.35,0-14V255.19q0-7.29,0-14.59c0-4.87,0-9.73,0-14.6,0-4.29,0-8.58,0-12.87q0-7.57,0-15.16c0-1.84,0-3.68,0-5.52a8.92,8.92,0,0,1,.12-1.36c.13-.79.21-.86,1-1,.45-.07.91-.11,1.37-.15s1.14-.09,1.72-.15c1.52-.17,3-.37,4.56-.51,1.22-.12,2.44-.18,3.66-.27l3.33-.26a3.75,3.75,0,0,0,.59-.11,5.33,5.33,0,0,1,.69-1.42c.32-.4.08-.79-.21-1.13v0l.22-.32v0a6.1,6.1,0,0,1,.47-.77.44.44,0,0,1,.75.11,2.39,2.39,0,0,1,.1.88,7.19,7.19,0,0,1-.24.88c-.11.43-.2.87-.32,1.42.75-.38.64-1.28,1.32-1.63a2.33,2.33,0,0,0,1.11.73.89.89,0,0,0,1-.3,9.94,9.94,0,0,1,.76-.84Zm32.42,53.15c-.44,0-.78.05-1.12.1-1,.16-2,.34-3.06.41a7.37,7.37,0,0,0-1.68.34,2.91,2.91,0,0,0-.89.5.73.73,0,0,0-.12.94,1.65,1.65,0,0,0,.95.79,9.66,9.66,0,0,0,2.58.91c.24,0,.47.23.68.34a3.47,3.47,0,0,1,.67-.25,1.07,1.07,0,0,0,.79-.6A8.93,8.93,0,0,0,54.54,239.45Zm26.81,1.69a8.24,8.24,0,0,0-1.44-2.77.34.34,0,0,0-.57.08c-.1.28-.27.62-.19.86a5.29,5.29,0,0,0,1,2.14A1.68,1.68,0,0,0,81.35,241.14Zm0,3.75a1.55,1.55,0,0,0,.81-1.07,1.22,1.22,0,0,0-.71-1.4.57.57,0,0,0-.82.61A4.31,4.31,0,0,0,81.36,244.89Zm-.66,18.49a1.53,1.53,0,0,0,.1-1.29,3.19,3.19,0,0,0-.9-1.67,1.22,1.22,0,0,0-.38-.19A4.87,4.87,0,0,0,80.7,263.38ZM60,239.91a1.92,1.92,0,0,0,.1.56c.05.09.27.2.35.16a.94.94,0,0,0,.26-1.43.34.34,0,0,0-.56.07C60.06,239.48,60,239.7,60,239.91Zm-2.12,32.67a2,2,0,0,1-.12-.42.82.82,0,0,1,.1-.42c.08-.13.23-.2.32-.31s.09-.37-.23-.47a.83.83,0,0,0-.34,0c-.1.21-.21.4-.29.61C57.13,272.08,57.17,272.14,57.86,272.58Zm7.29-14c-.07-.2-.08-.38-.17-.43a2.64,2.64,0,0,0-.82-.32c-.35-.05-.54.15-.64.54C64.25,258.16,64.25,258.16,65.15,258.57Zm-2.92,4a1.43,1.43,0,0,0-1-.52,3.29,3.29,0,0,0-.54.52c-.14.18-.2.41.07.56C61.37,262.57,61.37,262.57,62.23,262.57ZM68.55,255c-.08-.53-.44-.76-.88-1l-.67.57C67.64,254.3,68.05,254.72,68.55,255Zm-8.49,12.2c-.72-.65-1.19-.55-1.63-.14-.14.13-.18.32.11.48C58.85,267.07,59.33,267.05,60.06,267.16Zm-23.83-27,.84-.64c-.44-.28-.49-.31-.6-.24C36.16,239.48,36.14,239.76,36.23,240.18Zm38.87,8.54a5.41,5.41,0,0,0,.67-.12c.24-.06.48.23.73,0C75.71,247.84,75.62,247.85,75.1,248.72Zm-4.26,3.05a5,5,0,0,1,.9,0,4.81,4.81,0,0,1,.82.27,1.12,1.12,0,0,0-.9-.78C71.35,251.17,71.09,251.35,70.84,251.77ZM36.79,238.41c.48-.64.48-.64.38-1C36.83,237.57,36.78,237.88,36.79,238.41Zm1,17.21.14,0-.23-.86-.16,0ZM68.7,259c-.06-.08-.07-.12-.09-.14-.19-.09-.38-.22-.59,0a.09.09,0,0,0,0,.1c.12.24.35.17.55.17C68.58,259.06,68.61,259,68.7,259Zm-3.49,3.69a1.42,1.42,0,0,0-.2,0s-.05.07-.05.08a.93.93,0,0,0,.15.13Zm5.49-6.21a1.49,1.49,0,0,0-.12.14s0,.09,0,.09l.17-.07Zm-3.36,3.34-.14-.11-.11.15s.1.1.14.1S67.31,259.84,67.34,259.79ZM37.75,236.55l.13,0-.06-.07Zm33.33-42.8.09,0a.12.12,0,0,0,0-.08s-.05,0-.08,0Zm-6.76,73.69s-.06-.06-.09-.06,0,0-.08.06l.14.09ZM74.67,254s0-.07,0-.09-.06,0-.09,0l-.05.15ZM63.33,266l0-.08s-.07,0-.08,0a.41.41,0,0,0,0,.08Zm3.18-5.44h-.1l0,.08Zm.43,1.44.14-.11-.08-.07-.14.11Zm-2.45,1.77-.12-.05,0,.07Zm.45,2.7s0,.07,0,.08a.13.13,0,0,0,.09,0l0-.13Z"/><path d="M115.82,178.66a3.21,3.21,0,0,1,.53.43,3.46,3.46,0,0,0,1.16,1.09,1.29,1.29,0,0,1,.63.79c.07.22.14.44.19.66.2.8.67.75,1.21.42a3.85,3.85,0,0,0,.69-.59.78.78,0,0,0,.17-.85,6.82,6.82,0,0,0-2-3.43,2.25,2.25,0,0,1-.82-1.47c-.07-.37-.22-.73-.29-1.1a3.3,3.3,0,0,1,0-.71h.6a2.16,2.16,0,0,0,.77-.05,2.86,2.86,0,0,1,1.91-.13,3,3,0,0,0,.52,0c-.16-.73-.76-1.1-1-1.67s-1-.85-1.22-1.57c.15,0,.28,0,.34,0a4.92,4.92,0,0,1,1.52,1.39,1,1,0,0,0,.39.4.66.66,0,0,0,.52.07.58.58,0,0,0,.2-.48,2.15,2.15,0,0,0-.4-.8,8.67,8.67,0,0,0-1.16-1.11,13,13,0,0,1-2.39-2.47,9.32,9.32,0,0,0-3.14-2.86c-.68.36-1.39.72-2.07,1.15-1.16.73-2.41,1.32-3.63,2-.54.29-1.11.53-1.65.81a3.91,3.91,0,0,0-.75.53c-.86.77-.92.94-.74,2.18a4.23,4.23,0,0,1-1.87.18,1.31,1.31,0,0,1-.6-.3c-1.65-1.31-3.29-2.64-4.92-4a6.65,6.65,0,0,1-.56-.54l.56-.35a1.18,1.18,0,0,0-.19-.37c-.81-.76-1.63-1.5-2.45-2.25a1.73,1.73,0,0,0-.39-.25c-.7-.37-1.4-.75-2.11-1.11a1.48,1.48,0,0,1-.71-.73A10.35,10.35,0,0,0,91,159.26a6.77,6.77,0,0,1-1.83-4.12.89.89,0,0,0-.7-.92,26.34,26.34,0,0,0-3-.79,7.9,7.9,0,0,0-2,.11.72.72,0,0,0-.62.73c0,.53,0,1.07-.07,1.61,0,.34,0,.68,0,1a1,1,0,0,1-.84,1,11.58,11.58,0,0,1-3.51.48c-1.11-.07-2.22-.14-3.33-.16a8.74,8.74,0,0,1-5.26-1.72c-.17-.13-.38-.23-.65-.4a4,4,0,0,0-.22.68c0,.61,0,1.23-.06,1.83a3.75,3.75,0,0,0,.48,2.32,2.36,2.36,0,0,1,.47,1.41,2.16,2.16,0,0,1-1.45.16c-2.7-.26-5.4-.55-8.11-.8-1.33-.12-2.68-.13-4-.26s-2.42-.34-3.63-.54a4.21,4.21,0,0,1-.75-.27,6.37,6.37,0,0,0-1.09-.37,6.23,6.23,0,0,1-2.32-1,56,56,0,0,0-5.82-3,4.35,4.35,0,0,0-1-.33,10.68,10.68,0,0,1-2.42-.71,1.59,1.59,0,0,0-1-.05,8.51,8.51,0,0,1-1.59.18,2.19,2.19,0,0,1-1.41-.33,2.85,2.85,0,0,0-1-.33l-.26-.8a2.5,2.5,0,0,0-.52-.19,4.76,4.76,0,0,1-2.81-1.14c-.31-.28-.81-.39-1.14-.72a1,1,0,0,0-.54-.16c-.46,0-.92-.06-1.17-.55a.28.28,0,0,0-.2-.12,12.59,12.59,0,0,1-2.3-1,2.36,2.36,0,0,0-1.22-.24,4.52,4.52,0,0,1-1.77-.23c-1.12-.17-2.22-.66-3.4-.36a.76.76,0,0,1-.53-.1,2.94,2.94,0,0,0-2.19-.47,1.7,1.7,0,0,1-.89-.15,4,4,0,0,0-1.68-.34,3,3,0,0,1-2.5-1.4,1.86,1.86,0,0,1-.25-1.65c.28-1.19.54-2.39.88-3.57a13.54,13.54,0,0,0,.49-4.43,5,5,0,0,0-.11-1c-.39-1.6-.79-3.19-1.18-4.78-.12-.48-.26-1-.37-1.44-.17-.75-.31-1.5-.5-2.24a4.11,4.11,0,0,1,.38-3.22c1.47-2.48,1.11-2.81,1.13-4.7,0-1.26-.12-2.53-.14-3.79a42.37,42.37,0,0,1,.22-6c.26-2.17.57-4.33.87-6.49A3.14,3.14,0,0,1,13,102a1.45,1.45,0,0,0,.19-.65,7.27,7.27,0,0,0,.07-1.14A19.63,19.63,0,0,1,14,95.1c.26-1,.53-2.08.72-3.13s.28-1.89.38-2.84a.87.87,0,0,0-.16-.53.63.63,0,0,0-1.05.13c-.12.23-.2.48-.33.8a2.43,2.43,0,0,1-.51-.27,8,8,0,0,1-1.63-1.76A1,1,0,0,0,10.21,87c-.3.08-.62.2-.88,0a1.64,1.64,0,0,1-.51-1,2.78,2.78,0,0,1,.75-2.32c.29-.31.62-.57.92-.87s.46-.46.38-.79a.82.82,0,0,1,.35-.9,29.93,29.93,0,0,0,2.87-3.29,1.51,1.51,0,0,0,.25-.37,19.85,19.85,0,0,0,1.84-4.32c.13-.56.28-1.11.46-1.66a6.76,6.76,0,0,0,.26-2.61,27.62,27.62,0,0,1,.19-7.32c.08-.42.15-.83.25-1.24a37.76,37.76,0,0,1,2-5.84,28.37,28.37,0,0,0,1.19-3.35,5.19,5.19,0,0,0,0-1.43,3.64,3.64,0,0,0,1.07-2.52,2.23,2.23,0,0,1,.08-.45,9.83,9.83,0,0,0,.55-2.57A31.83,31.83,0,0,1,23,40.77c.34-1.45.57-2.93.86-4.39q.69-3.43,1.4-6.87c.29-1.42.6-2.84.89-4.27a33.12,33.12,0,0,1,2.16-6.88,43.51,43.51,0,0,1,4-7.35,3.1,3.1,0,0,0,.29-.5,12.11,12.11,0,0,1,3.74-4.42l2-1.58c.36-.28.74-.55,1.12-.81s.54-.29.77-.48a21.48,21.48,0,0,1,3.45-2.05A10,10,0,0,1,48.27,0c.58,0,1.15,0,1.72.05a1.92,1.92,0,0,1,1.51.7A11.66,11.66,0,0,0,52.77,1.9c.23.2.48.36.4.75,0,.1.13.26.23.35a3,3,0,0,0,.57.39A24.33,24.33,0,0,1,59,6.6l2.17,1.7a20,20,0,0,1,3.21,3.42,39.32,39.32,0,0,1,4.16,6.86c.9,1.77,1.66,3.62,2.49,5.42.25.56.55,1.1.83,1.64a4.6,4.6,0,0,1,.73,2.15,1,1,0,0,0,.08.45,13.54,13.54,0,0,1,.89,3.43c.36,1.45.74,2.89,1.08,4.34.39,1.64.79,3.27,1.12,4.92.21,1,.32,2.12.47,3.18s.3,2,.43,3a5.52,5.52,0,0,1,.08,1.14,36.23,36.23,0,0,0,.22,5.51c.08,1.14.08,2.29.2,3.43.08.87.28,1.73.44,2.6a4,4,0,0,1,.19.65,12.23,12.23,0,0,0,.85,3.91,6.66,6.66,0,0,1,.19.77,8.18,8.18,0,0,0,.8,2c.66,1.21,1.21,2.47,1.75,3.74a3.49,3.49,0,0,0,.89,1.44,1.75,1.75,0,0,1,.47.76c.14.44.18.9.3,1.34a4.79,4.79,0,0,0,.49,1.51,9.13,9.13,0,0,1,1.19,2.6c.3,1,.54,1.92.77,2.88a1.88,1.88,0,0,1-.27,1.54c-.24.34-.44.71-.65,1.08-.37.63-.28,1,.36,1.29.31.15.64.27.95.41.13.06.24.15.41.25-.33.32-.7.24-1,.3-.62.12-.85.36-.85,1,0,1.19,0,2.38.09,3.56a6.56,6.56,0,0,0,.37,1.56,65.46,65.46,0,0,0,2.52,6.29c.88,2,1.75,4.08,2.65,6.11s1.88,4.1,2.8,6.17c.56,1.26,1.12,2.52,1.6,3.81a6.5,6.5,0,0,1,0,4.94,3.45,3.45,0,0,0,0,2.35,1.2,1.2,0,0,0,.38.56,10.6,10.6,0,0,0,2,1.46,3.92,3.92,0,0,1,1.69,1.51c.39.61.76,1.24,1.14,1.86s.7,1.19,1.06,1.77a7.23,7.23,0,0,1,1,2.78,3.33,3.33,0,0,0,1.12,2.08,12.62,12.62,0,0,1,3.48,5.34,23.79,23.79,0,0,0,3,5.26,18.32,18.32,0,0,1,1.07,1.76,13.3,13.3,0,0,0,1.71,2.43,1.23,1.23,0,0,0,.91.44,4.54,4.54,0,0,1,2.6,1.08c.7.54,1.39,1.09,2.06,1.66a10.49,10.49,0,0,1,2.2,2.92,9,9,0,0,1,.52,1,2,2,0,0,0,1,1.09,2.13,2.13,0,0,1,.65.62c.55.74,1.08,1.5,1.59,2.26a8.77,8.77,0,0,1,.65,1.21,2.23,2.23,0,0,1,0,2,2,2,0,0,0-.1.21c-.25.64-.23.68.3,1.18s1.12,1,1.67,1.58a4.26,4.26,0,0,1,1,1.65,2.1,2.1,0,0,1,.11,1.28l-1-.6-.22-.9a2.91,2.91,0,0,1-.75-.37,3,3,0,0,1-.49-.78,2,2,0,0,0-3.16-.41,5.14,5.14,0,0,0-1.06,1.49,5,5,0,0,0-.27,1.06,3.73,3.73,0,0,0,1.14.88,6.11,6.11,0,0,1,1,.7,2.57,2.57,0,0,1,.75,3.1c-.18.49-.3,1.06-.93,1.22l-.33-.17,0,.12.4,0,1,1.56v0a1,1,0,0,0,1.19-.34c.62.35,1.16.62,1.68.93a1.46,1.46,0,0,1,.28,2.11,3.84,3.84,0,0,0-1.2,2.15,4.44,4.44,0,0,1-.4.95,1.58,1.58,0,0,0-.14,1.32,7.56,7.56,0,0,1,.32,1.22,8.09,8.09,0,0,1,.1,1.7,1.45,1.45,0,0,1-1.06,1.36,5.06,5.06,0,0,1-1.69.43,5.08,5.08,0,0,0-.14-.7.94.94,0,0,0-1.27-.63c-.21.12-.39.23-.42.5a.63.63,0,0,0,.29.69c.25.14.52.25,1,.46a5.11,5.11,0,0,1-.72.17,1.28,1.28,0,0,0-1,.48.69.69,0,0,1-.8.29,1.18,1.18,0,0,0-1.56.57,2,2,0,0,1-.29.26l-.68-.26c-.45.14-.55.55-.74.87-.32.54-.7.89-1.39.7-.51-.14-.86.17-1.22.47-.62.52-1,.36-1.15-.44s-.19-1.43-.28-2.15c1.62-.5,1.53-1.08.94-2a9.79,9.79,0,0,1,1.64-2.85,1.2,1.2,0,0,0,.24-1.29,2,2,0,0,1,.16-1.86,6.85,6.85,0,0,0,.49-1.15c.14-.43.23-.88.34-1.32Zm6.66,2.42a8,8,0,0,0,1,.55.58.58,0,0,0,.51-.12c.11-.09.12-.31.17-.49-.35,0-.64.07-.81-.32a1.1,1.1,0,0,0-1.33-.61l-.33.08-.49-.12v.11h.52c.11.45.57.6.8,1l-.08.15ZM58.81,21.17a.3.3,0,0,0,0-.48c-.19-.19-.4-.36-.57-.56-1.12-1.32-2.69-2-4.06-3a1.63,1.63,0,0,0-.53-.21,14.59,14.59,0,0,0-1.43-.42A5.42,5.42,0,0,1,49.44,15a.75.75,0,0,0-1-.2,3.79,3.79,0,0,1-.77.21c-.37.57-.72,1.16-1.11,1.73a2,2,0,0,1-.58.69,3.66,3.66,0,0,0-1.58,1.67l-.65-.76c-.62.48-1.18.93-1.74,1.38a9.18,9.18,0,0,0-1.94,2.4,4.23,4.23,0,0,0-.41,1.18c-.11.4-.2.81-.29,1.22s-.18.66-.23,1c-.12.68-.23,1.36-.32,2a10.78,10.78,0,0,0-.12,1.25,1.29,1.29,0,0,0,1.48,1.46c.76,0,1.53,0,2.29,0a2.63,2.63,0,0,1,1.72.51,2.06,2.06,0,0,0,1.14.49,3.51,3.51,0,0,1,2.08,1.08,1.77,1.77,0,0,1,.47.9,4.9,4.9,0,0,1,.11,1c0,.18,0,.4-.4.45a2.46,2.46,0,0,0-.36-.47c-.36-.32-.68-.27-1,.14a6.28,6.28,0,0,0-.42.72l-1.49-.76c-.43-.21-.82-.2-1,.39A1.65,1.65,0,0,1,42.32,36s0,.13-.07.32c.75,0,1.48-.48,2.25-.16-.07.29-.21.53-.45.5a9.83,9.83,0,0,0-2.47.42.38.38,0,0,0-.2.1.39.39,0,0,0-.1.19c0,.07,0,.18.09.2.25.06.51.12.76.16s.54-.17.75.24a2.11,2.11,0,0,1-.5.36,7.72,7.72,0,0,1-1.24.23,1.42,1.42,0,0,0-1.28,1c-.36.93-.77,1.84-1.12,2.77a2,2,0,0,0,0,1.68,7.17,7.17,0,0,0,1.75,2.66,2.5,2.5,0,0,1,.91,1.42A2.46,2.46,0,0,0,42,49.3l2.26,2.12a7.11,7.11,0,0,1,.71.74c.84,1,1.67,2.08,2.52,3.11A5.93,5.93,0,0,0,50,57,3.68,3.68,0,0,0,53.26,57a4.64,4.64,0,0,1,1.64-.48,23.6,23.6,0,0,0,2.46-.56,2.4,2.4,0,0,0,1.38-1A7.08,7.08,0,0,0,60.41,51a4.38,4.38,0,0,1,.63-2.3,19,19,0,0,0,1.76-3.34A2.18,2.18,0,0,0,63,44a.9.9,0,0,1,.17-.87,2.38,2.38,0,0,0,.66-1.54,3.57,3.57,0,0,1,.35-.84,8.76,8.76,0,0,0,.35-.84,19.64,19.64,0,0,0,.67-4.31,4.23,4.23,0,0,0-.4-2.12c-.38-.79-.75-1.59-1.09-2.4a1.12,1.12,0,0,0-1-.74,11.13,11.13,0,0,0-2.14,2.81,1.65,1.65,0,0,1-.66.75,6.23,6.23,0,0,1-5.3.66c-.06,0-.09-.11-.19-.23a1.29,1.29,0,0,1,.42-.12c.34,0,.68.08,1,.11a5.64,5.64,0,0,0,2.81-.42,1.11,1.11,0,0,0,.4-.22.54.54,0,0,0,.13-.39c0-.06-.16-.16-.25-.17a2.75,2.75,0,0,0-.57.05c-.42.07-.83.16-1.24.22-.14,0-.31,0-.31-.29l.56-.26a4.31,4.31,0,0,0,1.54-1,1.82,1.82,0,0,0,.31-.47c.09-.21-.08-.38-.44-.47a6.66,6.66,0,0,1-.31.73,1.33,1.33,0,0,1-2.21.32c-.26-.26-.5-.55-.8-.89-.25.21-.51.33-.63.53A4,4,0,0,1,53.44,33c-.49-.29-.78-.29-1.09.06a7.4,7.4,0,0,0-.57.81c-1.43-.77-1.7-1.93-.85-3.14A6.89,6.89,0,0,1,53,28.51a1.39,1.39,0,0,0,.32-.32,4.18,4.18,0,0,1,1.36-1c1-.53,2-1.08,3-1.61a2.41,2.41,0,0,1,1.87-.32,1,1,0,0,0,.35,0,.63.63,0,0,0,.57-.82c0-.18-.14-.35-.2-.53A13.54,13.54,0,0,0,58.81,21.17Zm15.36,80.7c-.37.48-.69.86-1,1.26a2.37,2.37,0,0,0,.09,2.86c.18.24.4.44.61.67a1.16,1.16,0,0,0,.15,1.1c.31.46.87.49,1.11,0a2.43,2.43,0,0,0,.3-1.86,7.31,7.31,0,0,1-.36-2.36,1.33,1.33,0,0,0-.41-1C74.53,102.36,74.41,102.17,74.17,101.87ZM55.74,29c.19.08.26.14.33.13.83-.08,1.67-.11,2.49-.27a10.26,10.26,0,0,0,1.95-.61.49.49,0,0,0,.07-.9,2.25,2.25,0,0,0-2.08-.28,7.53,7.53,0,0,0-1.57.68A2.35,2.35,0,0,0,55.74,29Zm28.1,50.27a5.35,5.35,0,0,0-1.09-3.57,5.2,5.2,0,0,0-.37-.43.34.34,0,0,0-.55.17,1.66,1.66,0,0,0,0,.77A8.55,8.55,0,0,0,83,78.42C83.25,78.69,83.31,79.13,83.84,79.26Zm36.1,107a.57.57,0,0,0,.6-.79,1.58,1.58,0,0,0-1.29-1,.38.38,0,0,0-.4.43,2.07,2.07,0,0,0,.77,1.21A1,1,0,0,0,119.94,186.23ZM42,32.39a2.55,2.55,0,0,0-2-.33.18.18,0,0,0-.1,0c-.1.15-.28.31-.26.45s.21.28.36.37a.44.44,0,0,0,.32,0A3,3,0,0,0,42,32.39Zm75.42,150.94a.5.5,0,0,0,.41-.66,3.36,3.36,0,0,0-1-1.61C116.58,181.83,116.68,182.16,117.45,183.33Zm-.72,4c.28-1,.28-1,.13-1.57A1.3,1.3,0,0,0,116.73,187.32ZM41.32,36a6,6,0,0,0-.63-.49.32.32,0,0,0-.28.1.35.35,0,0,0,0,.3.62.62,0,0,0,.65.33C41.12,36.19,41.19,36.08,41.32,36Zm15.86-6.37c-.72-.06-.72-.06-1.06.38A1.29,1.29,0,0,0,57.18,29.59ZM19.29,57.39l-.12-.07a1,1,0,0,0-.14.28.86.86,0,0,0,0,.27,1.24,1.24,0,0,0,.19-.26A.72.72,0,0,0,19.29,57.39ZM50.25,14a.55.55,0,0,0-.1-.17s-.12.05-.18.08.05.15.1.17S50.19,14.06,50.25,14Zm.36.77-.15-.08s0,.06-.05.09l.15.07S50.59,14.83,50.61,14.8Zm6.57,15.94c0-.09-.06-.2-.09-.2a.89.89,0,0,0-.28,0c0,.08,0,.21.09.23A.62.62,0,0,0,57.18,30.74ZM41.84,33.2s0,.08,0,.08h.2l0-.15Zm.38.88a1.45,1.45,0,0,0-.28,0s0,.1-.07.15a.84.84,0,0,0,.26.07S42.18,34.17,42.22,34.08Z"/><path d="M131.87,293.33l.25-.53a2.21,2.21,0,0,1,1.57-1.23c.79-.18,1.57-.36,2.36-.52,1.2-.24,2.4-.47,3.59-.76a19.84,19.84,0,0,1,3.19-.35,4.93,4.93,0,0,1,1.25.16,2.12,2.12,0,0,1,1.4.91c.13.19.29.37.4.57A.85.85,0,0,0,147,292c.31-.08.63-.29,1-.1,0,.3-.21.33-.37.41a10,10,0,0,0-.93.45.46.46,0,0,0-.21.36.73.73,0,0,0,.34.41,2.94,2.94,0,0,0,.67.13,2.53,2.53,0,0,1,1.54.92,1.84,1.84,0,0,1,.29,1.94c-.09.21-.2.41-.29.6a3.83,3.83,0,0,0,.94,1.32,3.6,3.6,0,0,1,.59.83.74.74,0,0,1-.86,1.06,2.47,2.47,0,0,1-1.39-.74c-.17-.19-.3-.47-.71-.37.05.21.09.43.15.64a2.87,2.87,0,0,1-.06,2,1.37,1.37,0,0,0,0,1.2c.08.18,0,.45-.05.63a1.1,1.1,0,0,0,.76.54,1,1,0,0,1,.82,1.2,1.89,1.89,0,0,0,.37,1.5A6.37,6.37,0,0,1,150,308l.41-.05c.49,0,.71.06.74.48a1.93,1.93,0,0,0,.71,1.36,12.78,12.78,0,0,1,1.22,1.51c.14.17,0,.44-.28.48s-.65-.08-.51.34.46.16.7.05.6-.33.89-.5a.52.52,0,0,1,.84.23,1.79,1.79,0,0,1,.13.32,1.75,1.75,0,0,0,.94,1.1.77.77,0,0,1,.44.87l.75.27.09.67c.12,0,.2.07.26.05s.33-.19.5-.27c.49-.21.91-.1,1,.37a2,2,0,0,0,1.06,1.4c.15.07.23.28.34.42a2.77,2.77,0,0,0,.38-.06c.86-.22.84-.22,1.17.64a2.3,2.3,0,0,0,.55.7c.3.3.64.55,1,.83a.67.67,0,0,1,.09.21c-.17.29-.43,0-.63.12,0,0,0,.13.05.15a13.43,13.43,0,0,1,2.79,1.8l.09.07a4.88,4.88,0,0,0,1.22.63c1.31.27,2.38,1.25,3.79,1.26a12.37,12.37,0,0,1,1.59.21,17.69,17.69,0,0,0,3.78.19c.45,0,.92,0,1.38,0a4,4,0,0,1,3.23,1.89,1.82,1.82,0,0,1,.38.71,2.68,2.68,0,0,0,1.23,1.57,4.07,4.07,0,0,1,1.35,2.34.64.64,0,0,1-.31.69,17.65,17.65,0,0,1-1.54,1c-1,.55-1.95,1-2.93,1.58a4,4,0,0,0-.59.48,3.32,3.32,0,0,0,.54.31l2.31.69a2.46,2.46,0,0,1,.62.28.41.41,0,0,1,0,.74,8,8,0,0,1-2.81,1c-.6.09-1.2.22-1.79.35a13.66,13.66,0,0,1-3.18.41,5.24,5.24,0,0,0-1.36.18,8,8,0,0,1-2.38.33,3.47,3.47,0,0,0-.9.11,5.82,5.82,0,0,1-2.16.15,3.05,3.05,0,0,0-1.24.11,5.07,5.07,0,0,1-2,.19,3.91,3.91,0,0,0-.68,0,1.7,1.7,0,0,0-.22,0,17.44,17.44,0,0,1-2.51-.12,8.7,8.7,0,0,1-2.39,0,2.19,2.19,0,0,0-.68-.05,3.46,3.46,0,0,1-2-.42,1.58,1.58,0,0,0-.66-.12,9.1,9.1,0,0,1-.91,0c-.93-.21-1.85-.45-2.77-.67a8.89,8.89,0,0,0-1.13-.19,36.38,36.38,0,0,0-7,.05,2.12,2.12,0,0,0-1.54.66,1.59,1.59,0,0,1-1.34.52l-3.21,0c-.46,0-.92,0-1.38,0a20.72,20.72,0,0,1-4.24-.09,10.53,10.53,0,0,0-1.26-.05c-1.07,0-2.14.05-3.21,0a1.57,1.57,0,0,1-1.63-1.59c-.08-.72-.13-1.45-.25-2.16a19.36,19.36,0,0,1-.12-4.81,5.78,5.78,0,0,1,.5-2.22,3.28,3.28,0,0,0,.18-1.34,49.47,49.47,0,0,1,.38-7c.11-.76.24-1.52.35-2.27a9,9,0,0,0,.11-1,.83.83,0,0,0-.61-1,2.38,2.38,0,0,1-.71-.36,1.75,1.75,0,0,1-.77-1.47c0-.11,0-.23,0-.34a17.15,17.15,0,0,0-.89-6,11.2,11.2,0,0,0-.81-1.89,21.59,21.59,0,0,0-1.26-2.32,20.56,20.56,0,0,1-1.31-2.15,1,1,0,0,0-.91-.6c-.35,0-.69-.07-1-.07a1.51,1.51,0,0,1-1.51-1c-.07-.18-.19-.34-.26-.51a1.08,1.08,0,0,1,.73-1.54,1.49,1.49,0,0,1,1.52.22,1.06,1.06,0,0,0,1.54,0l.37-.27a15.69,15.69,0,0,1,7.12-3c.78-.15,1.59-.18,2.39-.26a.56.56,0,0,1,.33.08.64.64,0,0,0,.64,0A9.77,9.77,0,0,1,131.87,293.33Zm19.37,17.93a.46.46,0,0,0,.25.57l-.27-.6a.8.8,0,0,0,.21,0c.14,0,.3,0,.29-.21s-.09-.17-.1-.16a1.07,1.07,0,0,0-.35.14S151.25,311.19,151.24,311.26Zm-7.94-1.2c.07-.25.16-.5.22-.75a1.78,1.78,0,0,0,.08-.45.39.39,0,0,0-.33-.4.33.33,0,0,0-.39.31c0,.37-.1.75-.14,1.12a1.79,1.79,0,0,1-.36-.43,10.39,10.39,0,0,0-1.66-2.47,3.17,3.17,0,0,0-1.78-1.19,1,1,0,0,1-.89-.75,1.11,1.11,0,0,0-.15-.31.75.75,0,0,0-1.31.08,1.43,1.43,0,0,0-.2,1.1c.19.86.35,1.73.59,2.57a3.28,3.28,0,0,0,2.13,2.24,10.67,10.67,0,0,1,4.2,2.49,3.33,3.33,0,0,0,.57.38c.33.23.63,0,.91-.08a6.12,6.12,0,0,0,.9.54c1,.42,1.48.13,1.76-1.07a1.24,1.24,0,0,0-.35-.25,4,4,0,0,1-2.3-1.41,8.21,8.21,0,0,0-.88-.89,5.67,5.67,0,0,0-.66-.42ZM152,320.67c-.09-.07-.17-.15-.26-.21s-.08,0-.23.1l.51.08a4.69,4.69,0,0,0,.35.58,15.89,15.89,0,0,0,1.56,1.51,7.18,7.18,0,0,0,1.75,1.06,1.48,1.48,0,0,0,.67.11c.29,0,.73-.3.66-.52-.16-.56.21-1.11-.08-1.66a1.64,1.64,0,0,1,.23-2s0-.14,0-.21l-1.9-.75a1.42,1.42,0,0,1-2.07.73,2.65,2.65,0,0,1-.8-.63.61.61,0,0,1-.14-.79c.19.2.35.39.53.56a1,1,0,0,0,1,.22c.18,0,.36-.15.23-.44a2.12,2.12,0,0,1-.44.05c-.52,0-.7-.28-.49-.73.08-.17.2-.33.29-.5s0-.14,0-.23l-.59-.18,0-.49c-.42-.35-.83-.69-1.25-1a5.3,5.3,0,0,0-.57-.33l-.48.4a1.6,1.6,0,0,1-1.72.28,6.77,6.77,0,0,0-.75-.28,2.62,2.62,0,0,0-.56,0,1.69,1.69,0,0,0,.59,1.57,25,25,0,0,0,3.14,2.66c.37.27.73.55,1.09.84.05,0,.05.12.09.21Zm-13.85-24.8a5,5,0,0,1-2.05.81c-.87.2-1.13.88-1.32,1.68a1.53,1.53,0,0,0,.5.14,2.4,2.4,0,0,1,1.48.5c.5.34,1,.66,1.55,1,.78.44.83.41,1.11-.53,0-.06.12-.09.23-.16a4.12,4.12,0,0,0,.47.22c.2.08.4.13.66.21a10.62,10.62,0,0,0,.45-2.53,1.19,1.19,0,0,0-.63-1.25c-.46-.22-.81,0-1.16.26a3.6,3.6,0,0,1-.37.22ZM169.2,330a20,20,0,0,0,4.29-.6,1.46,1.46,0,0,0,1-.74.67.67,0,0,0-.37-1,1.9,1.9,0,0,0-.67-.09c-.46,0-.91.08-1.36.15-1.09.19-2.17.46-3.27.58a7.67,7.67,0,0,1-3.5-.1.9.9,0,0,0-.56,0,.5.5,0,0,0-.28.32.56.56,0,0,0,.4.59A12.93,12.93,0,0,0,169.2,330Zm-27.31-25.8a4.19,4.19,0,0,0,.31-.66c.18-.63,0-.92-.65-1a.49.49,0,0,0-.62.48A1.12,1.12,0,0,0,141.89,304.21Zm15.76,16.12c-.11,0-.21.05-.24.1a.87.87,0,0,0,0,1.13,1,1,0,0,0,1.12.31,1.16,1.16,0,0,0,.69-1.06.15.15,0,0,0-.06-.09c-.07,0-.17-.05-.2,0a1.85,1.85,0,0,0-.19.27c-.35.46-.79.43-1-.1A3.22,3.22,0,0,1,157.65,320.33ZM147.47,335.2a2.88,2.88,0,0,0-1.76-.48c-.11,0-.31.13-.32.22a.42.42,0,0,0,.2.34A2.89,2.89,0,0,0,147.47,335.2Zm2.22-35.85c0-.08,0-.13,0-.16a3.65,3.65,0,0,0-1.23-1.27.2.2,0,0,0-.2,0c-.07.08-.15.21-.13.29a1.6,1.6,0,0,0,1.31,1.23C149.52,299.48,149.62,299.38,149.69,299.35Zm-.56,13.79a.49.49,0,0,0-.72.12.54.54,0,0,0-.13.62,3.14,3.14,0,0,0,.44.78c.33.4.79.34,1.24-.2a7.27,7.27,0,0,1-.81,0,.4.4,0,0,1-.34-.5C148.9,313.68,149,313.41,149.13,313.14Zm-2.75-2.89c-.27-.43-.45-.75-.67-1a.42.42,0,0,0-.37-.13.32.32,0,0,0-.13.47A1.13,1.13,0,0,0,146.38,310.25Zm-2.78-6.6c-.44.08-.47.1-.5.21-.12.39.18.65.3.95a.52.52,0,0,0,.57.3c.05,0,.09-.09.15-.15l-.52-.41ZM133,320c.29.47.52.75.94.77a.38.38,0,0,0,.29-.12.35.35,0,0,0,0-.3A1.12,1.12,0,0,0,133,320Zm10-20.16c-.24-.25-.41-.35-.48-.5s0-.37-.1-.55a.67.67,0,0,0-.27-.31c-.06,0-.24.06-.27.14a.52.52,0,0,0,0,.42,3.49,3.49,0,0,0,.57.7C142.54,299.77,142.73,299.74,143,299.79Zm-5.55-8.27c.65.08.65.08.93-.27A.81.81,0,0,0,137.49,291.52Zm17.76,23.63c-.44-.41-.44-.41-.88-.46C154.61,314.94,154.82,315.2,155.25,315.15Zm4.65,11.18a3,3,0,0,0-.19.35s.09.09.14.13a1.76,1.76,0,0,0,.24-.3S160,326.42,159.9,326.33Zm-17.69-33.86c-.14-.08-.23-.18-.32-.18a.46.46,0,0,0-.44.43c0,.06.06.18.1.18a.83.83,0,0,0,.42,0C142.07,292.79,142.12,292.62,142.21,292.47Zm-.58,1c.09.49.09.49.59.48Zm-11.91,3.25c-.11-.15-.15-.29-.23-.31s-.28.07-.28.24a.87.87,0,0,0,.14.27Zm21.08,13.61c0-.05-.08-.14-.13-.14s-.11.06-.16.1l.17.21Zm-3.62-9.62s0-.08,0-.09-.06,0-.09,0,0,.08,0,.09S147.15,300.71,147.18,300.7Zm10.94,14.95L158,316a.52.52,0,0,0,.19.08.38.38,0,0,0,.15-.1C158.27,315.87,158.21,315.79,158.12,315.65Zm-3.85,1.21.11-.09-.09,0Zm6.37,2.21-.14.12.13.15.18-.17Zm-12.71-14.25h-.09l0,.15s.06,0,.07-.06A.32.32,0,0,0,147.93,304.82Z"/><path d="M128.05,175.51c-.13-.14-.17-.16-.17-.19a3.06,3.06,0,0,0-1.72-2.28c-.15-.08-.24-.27-.4-.46l1-.76c-.16-.65-.29-1.24-.92-1.54-.06,0-.06-.31,0-.39a.4.4,0,0,1,.39-.07,3.08,3.08,0,0,1,.74.7,11.3,11.3,0,0,1,1.58,3,1.86,1.86,0,0,1-.12,1.64A1.69,1.69,0,0,1,128.05,175.51Z"/><path d="M102.59,245.86a2,2,0,0,1,.32-.2,23,23,0,0,1,5.38-1.1,5.7,5.7,0,0,1,.92,0,1.08,1.08,0,0,1,.53.18.68.68,0,0,1,.21.47c0,.1-.18.23-.31.28a1.13,1.13,0,0,1-.45,0A62.81,62.81,0,0,0,102.59,245.86Z"/><path d="M114.59,173a.35.35,0,0,1,.48.2,4.17,4.17,0,0,1,.32,1,5.39,5.39,0,0,0,.6,2,1.33,1.33,0,0,1,.13.43.54.54,0,0,1-.28.58.45.45,0,0,1-.61-.13,5.8,5.8,0,0,1-1-2.27.56.56,0,0,1,0-.34Z"/><path d="M13.57,178.65c.2.06.17.23.17.37a14.61,14.61,0,0,0,.4,3.73c.07.23,0,.23-.15.71C13.14,182.5,13,180.36,13.57,178.65Z"/><path d="M27,163.75a2.29,2.29,0,0,1,2-1.86,4.84,4.84,0,0,0,.88-.25c.06.26-.16.3-.3.39Z"/><path d="M94.16,184.62a5.34,5.34,0,0,1-.54.6,6.61,6.61,0,0,0-1.61,1.6.66.66,0,0,1-.27.19.21.21,0,0,1-.2,0,.47.47,0,0,1-.06-.21.18.18,0,0,1,0-.1,11.28,11.28,0,0,1,2.26-2S93.86,184.62,94.16,184.62Z"/><path d="M35.24,160.05a6.67,6.67,0,0,1,2.6-1.25c.16.3,0,.38-.12.43l-2.51.8Z"/><path d="M97.94,187.54a1.79,1.79,0,0,1-1.59.32C97,187.47,97,187.47,97.94,187.54Z"/><path d="M96.14,185.07a3.85,3.85,0,0,1,1.77-1.14c-.3.54-.6.72-1.79,1.13Z"/><path d="M88,250.63a.49.49,0,0,1,.39.57.28.28,0,0,1-.25.1.52.52,0,0,1-.29-.54S87.92,250.67,88,250.63Z"/><path d="M99.66,184.46a4.61,4.61,0,0,1,.31-.41,1.24,1.24,0,0,1,.3-.17C100.32,184.23,100.32,184.23,99.66,184.46Z"/><path d="M42.34,194.62a1.24,1.24,0,0,1-1-.94c.48.2.62.62.93.83l0,0,.07.15Z"/><path d="M32.33,157.75l.94-.05v.14l-.94,0Z"/><path d="M109.56,247.5a2.57,2.57,0,0,1,.6-.15c.09,0,.17.12.26.18-.08.06-.17.17-.24.17A3.06,3.06,0,0,1,109.56,247.5Z"/><path d="M21.85,181.56c-.07.08-.13.19-.21.21s-.14-.08-.22-.12a1.43,1.43,0,0,1,.23-.2S21.76,181.51,21.85,181.56Z"/><path d="M32,160.24a2.23,2.23,0,0,1-.24.19s-.11-.05-.16-.08l.33-.22Z"/><path d="M37.85,156.91c-.12-.16-.25-.24-.24-.31,0-.23.22-.28.42-.26,0,0,.15.12.14.13S38,156.73,37.85,156.91Z"/><path d="M12.65,171.94a.79.79,0,0,1-.1.28s-.11,0-.17.05-.06-.06-.05-.09a.89.89,0,0,1,.09-.29s.11,0,.17-.06S12.62,171.89,12.65,171.94Z"/><path d="M32.91,159.61a.52.52,0,0,1-.16.06.16.16,0,0,1,0-.08,1.34,1.34,0,0,1,.11-.14C32.84,159.51,32.88,159.56,32.91,159.61Z"/><path d="M26.66,187.39l.23-.41.12.1-.37.29Z"/><path d="M124.1,174.64l0,.1-.17,0,.08-.15Z"/><path d="M111.33,178c-.07.05-.14.11-.17.1a.28.28,0,0,1-.13-.15s0-.1.08-.15Z"/><path d="M39,192.43s0,0,0,.08l-.06.07-.07-.13Z"/><polygon points="80.17 188.31 80.09 188.33 80.12 188.26 80.17 188.31"/><path d="M115.85,178.64l-.17-.14s0-.06,0-.1.13,0,.14,0a.71.71,0,0,1,0,.21Z"/><path d="M85.94,247.79l.17.14.06.08a.34.34,0,0,1-.12,0,1.21,1.21,0,0,1-.09-.2Z"/><path d="M22.13,186.32l0-.4h.06c0,.12-.07.24-.1.36Z"/><polygon points="117.6 168.99 117.51 168.99 117.55 168.91 117.6 168.99"/><path d="M99.06,187.39s0,.07,0,.08-.06,0-.08,0,0-.07,0-.08S99,187.39,99.06,187.39Z"/><path d="M94.74,186l.6-.48,0,0a.84.84,0,0,1-.59.48Z"/><path d="M96.12,185.06l-.81.43,0,0,.8-.44Z"/><path d="M25.86,158.69c.08-.06.16-.11,0,0,.13,0,0,0-.06,0Z"/><path d="M112.58,180.61l-.09,0,.11-.08Z"/><path d="M35.21,160l-.32.16,0-.14h.38Z"/><polygon points="11.33 161.81 11.4 161.79 11.38 161.88 11.33 161.81"/><path d="M25.84,158.69h0Z"/><path d="M68.84,194.82l-.06-.2.07.19Z"/><path d="M42.28,194.51l.11-.13s0,.05,0,.06l-.08.05Z"/><path d="M16.94,186.12l0,0Z"/><path d="M94.72,186l-.37.33h0l.37-.3Z"/><polygon points="17.17 185.82 17.2 185.74 17.17 185.84 17.17 185.82"/><path d="M43.16,193.86h0Z"/><path d="M42.33,194.64c.05.21.09.42.14.64v0c0-.21-.09-.43-.13-.64Z"/><path d="M94.35,186.3l-.07-.06.09,0Z"/><path d="M142.72,309.86l.58.2,0,0c0,.13-.09.26-.13.39a1.76,1.76,0,0,1-.3-.24A1,1,0,0,1,142.72,309.86Z"/><path d="M51.08,51.64a1.13,1.13,0,0,1-.42-.11,10.73,10.73,0,0,0-2.31-1A5.49,5.49,0,0,1,47,49.7,2.21,2.21,0,0,0,45.6,49c-.51,0-.73-.27-.68-.58a.92.92,0,0,1,.92-.84.2.2,0,0,1,.11,0,3.88,3.88,0,0,0,2.36-.18,15.57,15.57,0,0,1,3.7-.74,1.69,1.69,0,0,0,.76-.2,8.27,8.27,0,0,1,3.29-.92,7.32,7.32,0,0,0,2.74-.75,1.06,1.06,0,0,1,1.35.25.57.57,0,0,1,0,.74s0,.06-.08.07a4.15,4.15,0,0,0-1.93,2.33A4.81,4.81,0,0,1,54.24,51c-.9.15-1.8.34-2.69.51Zm-2.91-2.39c.43.45,1,.37,1.33.63a3.08,3.08,0,0,0,2,.42,9.9,9.9,0,0,0,3-.71,3.2,3.2,0,0,0,.87-.55c.41-.33.81-.69,1.19-1a2.27,2.27,0,0,0,.31-.5,2,2,0,0,0-1.2,0l-4.58,1-1.45.29A3.7,3.7,0,0,0,48.17,49.25Z"/><path d="M55.88,41.44a1.07,1.07,0,0,1-.2,1.36,3.33,3.33,0,0,1-.55.42c-.49.36-1,.73-1.47,1.08s-.76.53-1.13.79a1.51,1.51,0,0,1-1.53.13,6.37,6.37,0,0,0-2.24-.47,2.44,2.44,0,0,1-1-.3c-.16-.09-.25-.33-.41-.57a3.47,3.47,0,0,1,2.31-.63,5.05,5.05,0,0,1,.56.12,2.21,2.21,0,0,0,1.93-.5c.18-.15.34-.31.51-.47A1.59,1.59,0,0,1,53.84,42a4.4,4.4,0,0,0,1,0A5.72,5.72,0,0,0,55.88,41.44Z"/><path d="M43.8,37.63s-.11.09-.16.09-.07-.1-.1-.15.11-.1.16-.09S43.77,37.58,43.8,37.63Z"/><polygon points="56.59 20.04 56.6 20.14 56.51 20.1 56.59 20.04"/><path d="M58.84,20.68v0Z"/><path class="cls-2" d="M270.15,248.7c2.35-1,4.11-2.35,4.11-4.36,0-1.75-1.7-2.15-3.41-2.55-.3,0-.65-.76-.65-1.36a2.33,2.33,0,0,1,2.56-2.25c2.2,0,4.41,1.8,4.41,5.11,0,3.56-3.21,5.92-6.42,6.82Zm8.82,0c2.36-1,4.11-2.35,4.11-4.36,0-1.75-1.65-2.15-3.36-2.55-.3,0-.65-.76-.65-1.36a2.3,2.3,0,0,1,2.56-2.25c2.2,0,4.41,1.8,4.41,5.11,0,3.56-3.21,5.92-6.42,6.82Z"/><text/><path class="cls-2" d="M210.25,115.32c-2.39,1-4.18,2.4-4.18,4.44,0,1.78,1.68,2.19,3.42,2.59.3.06.66.77.66,1.38a2.34,2.34,0,0,1-2.6,2.29c-2.24,0-4.48-1.83-4.48-5.19,0-3.62,3.26-6,6.52-6.94Zm9,0c-2.39,1-4.18,2.4-4.18,4.44,0,1.78,1.74,2.19,3.47,2.59.3.06.66.77.66,1.38a2.36,2.36,0,0,1-2.6,2.29c-2.24,0-4.48-1.83-4.48-5.19,0-3.62,3.26-6,6.52-6.94Z"/><text class="cls-3" transform="translate(197.78 140.63)"><tspan xml:space="preserve">       </tspan><tspan class="cls-4" x="33.81" y="0">Hi,</tspan><tspan x="48.74" y="0"> </tspan><tspan class="cls-5" x="53.57" y="0">I</tspan><tspan x="56.61" y="0"> </tspan><tspan class="cls-5" x="61.44" y="0">am</tspan><tspan x="77.64" y="0"> </tspan><tspan class="cls-6" x="82.47" y="0">P</tspan><tspan class="cls-5" x="87.93" y="0">ayal</tspan><tspan x="108.99" y="0"> </tspan><tspan class="cls-6" x="113.82" y="0">P</tspan><tspan class="cls-5" x="119.28" y="0">atel,</tspan><tspan x="141.54" y="0"> </tspan><tspan class="cls-5" x="146.36" y="0">a </tspan><tspan class="cls-5"><tspan x="0" y="16">UX/UI</tspan><tspan class="cls-7" x="30.76" y="16"> </tspan><tspan x="39.19" y="16">designe</tspan><tspan class="cls-8" x="78.54" y="16">r</tspan><tspan x="81.23" y="16">.</tspan><tspan class="cls-7" x="84.81" y="16"> </tspan><tspan x="93.24" y="16">I</tspan><tspan class="cls-9" x="96.27" y="16"> </tspan><tspan class="cls-4" x="104.7" y="16">strive</tspan><tspan class="cls-9" x="130.61" y="16"> </tspan><tspan class="cls-4" x="139.03" y="16">for </tspan><tspan x="0" y="32">innovation,</tspan><tspan class="cls-10" x="57.04" y="32"> </tspan><tspan x="68.96" y="32">excellence</tspan><tspan class="cls-10" x="121.46" y="32"> </tspan><tspan class="cls-4" x="133.38" y="32">and </tspan><tspan x="0" y="48">loyalty</tspan><tspan class="cls-11" x="32.19" y="48"> </tspan><tspan x="36.11" y="48">to</tspan><tspan class="cls-11" x="46.02" y="48"> </tspan><tspan x="49.94" y="48">the</tspan><tspan class="cls-11" x="65.49" y="48"> </tspan><tspan x="69.4" y="48">target</tspan><tspan class="cls-11" x="98.8" y="48"> </tspan><tspan x="102.72" y="48">audience. </tspan><tspan x="0" y="64">Those</tspan><tspan class="cls-12" x="30.06" y="64"> </tspan><tspan x="42.51" y="64">values</tspan><tspan class="cls-13" x="74.47" y="64"> </tspan><tspan class="cls-4" x="86.92" y="64">create</tspan><tspan class="cls-13" x="118.29" y="64"> </tspan><tspan x="130.74" y="64">high </tspan><tspan x="0" y="80">impact</tspan><tspan class="cls-14" x="34.38" y="80"> </tspan><tspan x="39.31" y="80">on</tspan><tspan class="cls-14" x="52.5" y="80"> </tspan><tspan x="57.43" y="80">brand</tspan><tspan class="cls-14" x="87.54" y="80"> </tspan><tspan x="92.47" y="80">identity</tspan><tspan class="cls-15" x="128.45" y="80"> </tspan><tspan class="cls-4" x="133.38" y="80">and </tspan><tspan x="0" y="96">its success. </tspan></tspan></text><circle class="cls-16" cx="422.65" cy="283.49" r="12.75"/><line class="cls-17" x1="211.25" y1="285.16" x2="411" y2="285.16"/><path class="cls-2" d="M421.91,283.87a.74.74,0,0,0,.67-.47s0-.3,0-.32v-.23a8.6,8.6,0,0,0-1.07-.06h-.28a.71.71,0,0,0-.1.35A.74.74,0,0,0,421.91,283.87Z"/><path class="cls-2" d="M421.87,273.34A12,12,0,0,0,410,284.07a14.83,14.83,0,0,0,2.27,9.85,12.25,12.25,0,0,0,1,1.35h2.13a9.86,9.86,0,0,1-.92-.91A11.93,11.93,0,0,1,412,290a13.94,13.94,0,0,1-.56-5.75,10.43,10.43,0,0,1,10.92-9.34A5.33,5.33,0,0,1,426,277a6.5,6.5,0,0,1,1,4.65c0,.19-.06.38-.1.57a4.81,4.81,0,0,1-5.73,3.74,3.71,3.71,0,0,1-2.89-4.23,4.73,4.73,0,0,0-1.08.72,6.42,6.42,0,0,0-.43.48,5.15,5.15,0,0,0,4.08,4.49,6.33,6.33,0,0,0,7.51-4.89c0-.05,0-.1,0-.15a8.46,8.46,0,0,0-.61-5.3,9.63,9.63,0,0,1,.84.85,8.22,8.22,0,0,1,1.76,6.08,5.54,5.54,0,0,1-.12.71A14.1,14.1,0,0,1,431,287V287a7.92,7.92,0,0,0,.87-2.83,9.73,9.73,0,0,0-2.09-7.18l-.36-.42a10,10,0,0,0-2-1.72,3.82,3.82,0,0,0-1-.57l-.28-.09a7.91,7.91,0,0,0-2.9-.79c-.26,0-.53,0-.79-.05l-.11,0h-.1l0,0Z"/><text class="cls-18" transform="translate(243.56 54.2) rotate(0.15)">Design your Vision</text></g></g></svg>
