<svg xmlns="http://www.w3.org/2000/svg" viewBox="0 0 55 55.16"><defs><style>.cls-1{fill:#d1d3d4;}.cls-2{fill:#010101;}.cls-3{fill:#a61f4c;}</style></defs><title>Photography</title><g id="Layer_2" data-name="Layer 2"><g id="Layer_5" data-name="Layer 5"><circle class="cls-1" cx="27.5" cy="27.66" r="27.5"/><path class="cls-2" d="M43.52,0H3.87a.71.71,0,0,0-.71.71V31.86a.71.71,0,0,0,.71.71H43.52a.7.7,0,0,0,.7-.71V.71A.7.7,0,0,0,43.52,0Zm-.71,31.15H4.58V1.42H42.81Z"/><path class="cls-3" d="M14.49,15.67a3.94,3.94,0,1,0-4-3.94A3.94,3.94,0,0,0,14.49,15.67Z"/><path class="cls-2" d="M8.12,28.32a.69.69,0,0,0,.46-.18L20.13,18l7.3,7.29a.7.7,0,0,0,1,0,.72.72,0,0,0,0-1L25,20.86l6.5-7.11,8,7.3a.7.7,0,0,0,1,0,.71.71,0,0,0,0-1L32,12.22a.74.74,0,0,0-.51-.18.69.69,0,0,0-.49.23L24,19.86,20.66,16.5a.71.71,0,0,0-1,0l-12,10.61a.71.71,0,0,0,.47,1.24Z"/></g></g></svg>