<svg xmlns="http://www.w3.org/2000/svg" viewBox="0 0 56.92 55"><defs><style>.cls-1{fill:#d1d3d4;}.cls-2{fill:#010101;}.cls-3{fill:#a61f4c;}</style></defs><title>RWD</title><g id="Layer_2" data-name="Layer 2"><g id="Layer_5" data-name="Layer 5"><circle class="cls-1" cx="29.42" cy="27.5" r="27.5"/><path class="cls-2" d="M.72,14.48H43.66a.72.72,0,0,0,.72-.72V7.45a.72.72,0,0,0-.72-.72H.72A.72.72,0,0,0,0,7.45v6.31A.72.72,0,0,0,.72,14.48Zm.72-6.31h41.5V13H1.44Z"/><path class="cls-3" d="M43.66,15.91H15.74a.72.72,0,0,0-.72.71v6.31a.72.72,0,0,0,.72.72H43.66a.72.72,0,0,0,.72-.72V16.62a.71.71,0,0,0-.72-.71Zm-.72,6.3H16.46V17.34H42.94Z"/><path class="cls-3" d="M43.66,25.08H15.74a.72.72,0,0,0-.72.72v6.3a.72.72,0,0,0,.72.72H43.66a.72.72,0,0,0,.72-.72V25.8A.72.72,0,0,0,43.66,25.08Zm-.72,6.3H16.46V26.51H42.94Z"/><path class="cls-2" d="M.72,32.82H12.87a.72.72,0,0,0,.72-.72V16.62a.71.71,0,0,0-.72-.71H.72a.71.71,0,0,0-.72.71V32.1A.72.72,0,0,0,.72,32.82Zm.72-15.48H12.16v14H1.44Z"/></g></g></svg>