<svg xmlns="http://www.w3.org/2000/svg" viewBox="0 0 55 55"><defs><style>.cls-1{fill:#d1d3d4;}.cls-2{fill:#a61f4c;}.cls-3{fill:#010101;}</style></defs><title>Typography</title><g id="Layer_2" data-name="Layer 2"><g id="Layer_5" data-name="Layer 5"><circle class="cls-1" cx="27.5" cy="27.5" r="27.5"/><path class="cls-2" d="M9,8.73a.62.62,0,0,0,.62-.62V6.8H26.78a.63.63,0,1,0,0-1.25H9.64V4.1A.62.62,0,0,0,9,3.48H5a.62.62,0,0,0-.62.62v4A.62.62,0,0,0,5,8.73h1.5V30.25H5a.63.63,0,0,0-.62.63v4A.62.62,0,0,0,5,35.5H9a.62.62,0,0,0,.62-.62v-4A.63.63,0,0,0,9,30.25H7.76V8.73ZM8.39,34.25H5.64V31.5H8.39ZM5.64,4.73H8.39V7.48H5.64Z"/><path class="cls-3" d="M35.79,8.73a.62.62,0,0,0,.62-.62v-4a.62.62,0,0,0-.62-.62h-4a.63.63,0,0,0-.63.62v4a.63.63,0,0,0,.63.62h1.42V30.25H31.79a.63.63,0,0,0-.63.63v1.37H14a.63.63,0,0,0,0,1.25H31.16v1.38a.63.63,0,0,0,.63.62h4a.62.62,0,0,0,.62-.62v-4a.63.63,0,0,0-.62-.63H34.46V8.73Zm-.63,25.52H32.41V31.5h2.75ZM32.41,4.73h2.75V7.48H32.41Z"/><path class="cls-3" d="M29.28,6.8a.63.63,0,0,0,.45-1.07.64.64,0,0,0-.89,0,.63.63,0,0,0-.18.45.62.62,0,0,0,.18.44A.67.67,0,0,0,29.28,6.8Z"/><path class="cls-3" d="M13.4,15.73A.63.63,0,0,0,14,15.1V13.81h4V25.75H14.88a.63.63,0,0,0-.63.62v3a.63.63,0,0,0,.63.63h11a.63.63,0,0,0,.62-.63v-3a.62.62,0,0,0-.62-.62H22.79V13.81h4V15.1a.63.63,0,0,0,.62.63h2.5a.63.63,0,0,0,.63-.63V9.68a.63.63,0,0,0-.63-.63h-19a.63.63,0,0,0-.63.63V15.1a.63.63,0,0,0,.63.63ZM11.52,10.3H29.28v4.18H28v-1.3a.63.63,0,0,0-.63-.62H22.16a.62.62,0,0,0-.62.62V26.37a.63.63,0,0,0,.62.63H25.3v1.75H15.5V27h3.16a.63.63,0,0,0,.62-.63V13.18a.62.62,0,0,0-.62-.62H13.4a.63.63,0,0,0-.63.62v1.3H11.52Z"/><path class="cls-3" d="M11.52,32.25a.65.65,0,0,0-.44.18.62.62,0,0,0,0,.89.63.63,0,0,0,.88,0,.62.62,0,0,0,0-.89A.65.65,0,0,0,11.52,32.25Z"/></g></g></svg>