<svg xmlns="http://www.w3.org/2000/svg" viewBox="0 0 55 55.37"><defs><style>.cls-1{fill:#d1d3d4;}.cls-2{fill:#010101;}.cls-3{fill:#a61f4c;}</style></defs><title>UX Design</title><g id="Layer_2" data-name="Layer 2"><g id="Layer_5" data-name="Layer 5"><circle class="cls-1" cx="27.5" cy="27.87" r="27.5"/><g id="Outline"><path class="cls-2" d="M8.85,9.29A4.65,4.65,0,1,0,4.2,4.65,4.64,4.64,0,0,0,8.85,9.29Zm0-8A3.32,3.32,0,1,1,5.53,4.65,3.31,3.31,0,0,1,8.85,1.33Z"/><path class="cls-2" d="M3.74,7.8l-.5.29a6,6,0,0,0-3,5.19v4a2,2,0,0,0,2,2H15.48a2,2,0,0,0,2-2v-4a6,6,0,0,0-3-5.19L14,7.8l-.35.46A6,6,0,0,1,5.25,9.42,5.75,5.75,0,0,1,4.1,8.26ZM8.85,12a7.26,7.26,0,0,0,5.41-2.41,4.7,4.7,0,0,1,1.89,3.74v4a.66.66,0,0,1-.67.66H2.21a.66.66,0,0,1-.67-.66v-4A4.7,4.7,0,0,1,3.43,9.54,7.27,7.27,0,0,0,8.85,12Z"/><path class="cls-2" d="M16.81,35.18a4.65,4.65,0,0,0,4.65,4.65h10a4.65,4.65,0,0,0,4.64-4.65V25.23a4.65,4.65,0,0,0-4.64-4.65h-10a4.65,4.65,0,0,0-4.65,4.65Zm17.93,0a3.32,3.32,0,0,1-3.32,3.32h-10a3.32,3.32,0,0,1-3.32-3.32v-8h16.6Zm-16.6-9.95a3.32,3.32,0,0,1,3.32-3.32h10a3.32,3.32,0,0,1,3.32,3.32v.66H18.14Z"/><path class="cls-3" d="M23,23.54a1.07,1.07,0,1,0,0,1.53,1.38,1.38,0,0,0,.23-.36,1,1,0,0,0,0-.81A1.16,1.16,0,0,0,23,23.54Z"/><path class="cls-3" d="M26.27,23.26a1.16,1.16,0,0,0-.38.16l-.16.12a1.09,1.09,0,0,0,0,1.53l.16.13a.66.66,0,0,0,.19.09l.19.07.22,0a1.09,1.09,0,0,0,1.08-1.07,1.07,1.07,0,0,0-1.3-1Z"/><path class="cls-3" d="M30.37,23.32a1.34,1.34,0,0,0-.36.22,1.11,1.11,0,0,0,0,1.53,1.34,1.34,0,0,0,.36.22,1,1,0,0,0,.41.09,1.07,1.07,0,1,0-.41-2.06Z"/><path class="cls-2" d="M27,16.51l2.41,2.08,2.08-2.41-.14-1.91-1.54,1.78A12.62,12.62,0,0,0,17.48,6V7.3a11.31,11.31,0,0,1,11,8.66L26.87,14.6Z"/><path class="cls-2" d="M5.28,23.32,2.87,21.24.79,23.65l.14,1.91,1.54-1.78A12.64,12.64,0,0,0,14.82,33.86V32.53a11.3,11.3,0,0,1-11-8.66l1.57,1.36Z"/></g></g></g></svg>