<svg xmlns="http://www.w3.org/2000/svg" viewBox="0 0 55.09 57.3"><defs><style>.cls-1{fill:#d1d3d4;}.cls-2{fill:#010101;}.cls-3{fill:#a61f4c;}</style></defs><title>Web Design</title><g id="Layer_2" data-name="Layer 2"><g id="Layer_5" data-name="Layer 5"><circle class="cls-1" cx="27.59" cy="29.8" r="27.5"/><path class="cls-2" d="M15.52,25.25a.66.66,0,0,1-.42-.15l-4.2-3.58a.66.66,0,0,1-.23-.5.62.62,0,0,1,.23-.49L15.1,17A.66.66,0,0,1,16,17a.65.65,0,0,1-.08.92L12.32,21l3.62,3.09A.64.64,0,0,1,16,25,.66.66,0,0,1,15.52,25.25Z"/><path class="cls-2" d="M23.82,25.25a.65.65,0,0,1-.42-1.14L27,21,23.4,17.94a.65.65,0,0,1,.84-1l4.2,3.58a.62.62,0,0,1,.23.49.66.66,0,0,1-.23.5l-4.2,3.58A.66.66,0,0,1,23.82,25.25Z"/><path class="cls-2" d="M18.18,27.94l-.13,0a.64.64,0,0,1-.5-.77l2.62-12.43a.65.65,0,1,1,1.27.26L18.82,27.42A.66.66,0,0,1,18.18,27.94Z"/><path class="cls-2" d="M35,34.71H4.36A4.36,4.36,0,0,1,0,30.35v-26A4.37,4.37,0,0,1,4.36,0H35a4.36,4.36,0,0,1,4.36,4.36v26A4.36,4.36,0,0,1,35,34.71ZM4.36,1.3A3.06,3.06,0,0,0,1.3,4.36v26a3.06,3.06,0,0,0,3.06,3.06H35a3.07,3.07,0,0,0,3.07-3.06v-26A3.07,3.07,0,0,0,35,1.3Z"/><path class="cls-2" d="M38.69,10.4H.65a.65.65,0,1,1,0-1.3h38a.65.65,0,1,1,0,1.3Z"/><path class="cls-3" d="M11.1,7.29a2.06,2.06,0,1,1,2.05-2A2.06,2.06,0,0,1,11.1,7.29Z"/><path class="cls-3" d="M4.78,7.27a2.06,2.06,0,1,1,2.06-2A2.05,2.05,0,0,1,4.78,7.27Z"/><path class="cls-3" d="M17.41,7.31a2.06,2.06,0,1,1,2.06-2A2.05,2.05,0,0,1,17.41,7.31Z"/></g></g></svg>